<svg width="24" height="24" viewBox="0 0 24 24" fill="none" xmlns="http://www.w3.org/2000/svg">
<g id="mdi:charity">
<path id="Vector" d="M12.7488 3.93859C13.7488 3.21859 14.9088 2.85859 16.2188 2.85859C16.9388 2.85859 17.7288 3.04859 18.5888 3.44859C19.4488 3.83859 20.1288 4.29859 20.6288 4.82859C21.6588 6.10859 22.0888 7.59859 21.9388 9.29859C21.7788 10.9986 21.2188 12.3286 20.2488 13.2686L12.6588 20.8586C12.4688 21.0486 12.2288 21.1386 11.9488 21.1386C11.6688 21.1386 11.4388 21.0486 11.2488 20.8586C11.1564 20.7676 11.0838 20.6584 11.0356 20.5379C10.9874 20.4174 10.9647 20.2883 10.9688 20.1586C10.9688 19.8786 11.0588 19.6386 11.2488 19.4486L15.8388 14.8586C16.0888 14.6386 16.0888 14.4086 15.8388 14.1586C15.5888 13.9086 15.3588 13.9086 15.1388 14.1586L10.5488 18.7486C10.4563 18.8418 10.3454 18.9148 10.2232 18.963C10.101 19.0112 9.9701 19.0336 9.83883 19.0286C9.55883 19.0286 9.32883 18.9386 9.13883 18.7486C9.04637 18.6576 8.97376 18.5484 8.92557 18.4279C8.87739 18.3074 8.85466 18.1783 8.85883 18.0486C8.85883 17.7686 8.94883 17.5286 9.13883 17.3386L13.7288 12.7486C13.9988 12.4986 13.9988 12.2486 13.7288 11.9986C13.4988 11.7486 13.2788 11.7486 13.0288 11.9986L8.43883 16.6386C8.34523 16.7304 8.23416 16.8025 8.1122 16.8506C7.99025 16.8986 7.85988 16.9218 7.72883 16.9186C7.44883 16.9186 7.20883 16.8286 6.99883 16.6386C6.79883 16.4486 6.69883 16.2186 6.69883 15.9386C6.69883 15.6586 6.80883 15.4086 7.02883 15.1886L11.6288 10.5886C11.8788 10.3386 11.8788 10.1086 11.6288 9.88859C11.3788 9.66859 11.1388 9.66859 10.9188 9.88859L6.27883 14.4986C6.05883 14.6986 5.82883 14.8086 5.57883 14.8086C5.29883 14.8086 5.05883 14.7086 4.87883 14.4986C4.68883 14.2986 4.58883 14.0586 4.58883 13.7786C4.58883 13.4986 4.68883 13.2686 4.87883 13.0786C7.93883 9.99859 9.82883 8.13859 10.5488 7.44859L14.1088 10.9686C14.4988 11.3386 14.9488 11.5286 15.4988 11.5286C16.1988 11.5286 16.7488 11.2486 17.1588 10.6886C17.4388 10.2786 17.5388 9.82859 17.4588 9.32859C17.3788 8.82859 17.1688 8.40859 16.8288 8.05859L12.7488 3.93859ZM14.8088 10.2686L10.5488 5.99859L3.46883 13.0786C2.62883 12.2286 2.14883 10.9286 2.03883 9.15859C1.92883 7.39859 2.40883 5.86859 3.46883 4.58859C4.65883 3.40859 6.07883 2.80859 7.72883 2.80859C9.38883 2.80859 10.7988 3.40859 11.9488 4.58859L16.2188 8.85859C16.4088 9.04859 16.4988 9.27859 16.4988 9.55859C16.4988 9.83859 16.4088 10.0786 16.2188 10.2686C16.0288 10.4486 15.7988 10.5486 15.4988 10.5486C15.2288 10.5486 14.9988 10.4486 14.8088 10.2686Z" fill="white"/>
</g>
</svg>
