<svg width="16" height="16" viewBox="0 0 16 16" fill="none" xmlns="http://www.w3.org/2000/svg">
<g id="Frame 1171279422">
<g id="Group 526">
<path id="Vector" d="M11.0647 5.36067C11.0647 4.46936 10.7107 3.61456 10.0804 2.98432C9.45019 2.35407 8.59539 2 7.70408 2C6.81278 2 5.95798 2.35407 5.32773 2.98432C4.69749 3.61456 4.34342 4.46936 4.34342 5.36067C4.34342 9.28144 2.66309 10.4017 2.66309 10.4017H12.7451C12.7451 10.4017 11.0647 9.28144 11.0647 5.36067Z" stroke="white" stroke-width="1.5" stroke-linecap="round" stroke-linejoin="round"/>
<path id="Vector_2" d="M8.67285 12.6416C8.57437 12.8114 8.43303 12.9523 8.26297 13.0502C8.09291 13.1482 7.90011 13.1997 7.70385 13.1997C7.5076 13.1997 7.3148 13.1482 7.14474 13.0502C6.97468 12.9523 6.83334 12.8114 6.73486 12.6416" stroke="white" stroke-width="1.5" stroke-linecap="round" stroke-linejoin="round"/>
</g>
</g>
</svg>
