<svg width="24" height="24" viewBox="0 0 24 24" fill="none" xmlns="http://www.w3.org/2000/svg">
<g id="game-icons:trade">
<path id="Vector" d="M13.4531 0.938043C11.6188 0.960543 9.71578 1.65509 7.96875 3.09139H11.7408V5.11582C14.2139 3.72129 17.1123 3.63514 19.4254 5.11723L18.5728 5.57286L21.6051 7.95036L21.4293 4.04501L20.1915 4.70717C18.5606 2.28767 16.1723 0.968231 13.6349 0.938043C13.5743 0.937319 13.5138 0.937319 13.4532 0.938043H13.4531ZM0.890625 3.96734V13.94H10.8648V3.96734H0.890719H0.890625ZM3.24759 5.1875H9.64453V11.7003H8.76713V6.06354H3.24764V5.18754L3.24759 5.1875ZM3.40434 6.97465L7.6275 11.2799L7.002 11.8937L2.77884 7.58843L3.40434 6.97465ZM13.0913 9.86918V19.8433H23.064V9.86928H13.0913V9.86918ZM15.4468 11.0909H21.8438V17.6021H20.9679V11.9668H15.447L15.4469 11.0909L15.4468 11.0909ZM15.6036 12.8766L19.8282 17.1832L19.2028 17.7955L14.9782 13.4903L15.6036 12.8766L15.6036 12.8766ZM2.54747 15.8605L2.72325 19.7657L3.816 19.1812C6.67195 23.336 11.7843 24.1727 15.9859 20.7193H12.2153V18.6949C9.77409 20.0721 6.91847 20.1735 4.62019 18.7506L5.57812 18.2379L2.54747 15.8605Z" fill="white"/>
</g>
</svg>
