<svg width="33" height="32" viewBox="0 0 33 32" fill="none" xmlns="http://www.w3.org/2000/svg">
<g clip-path="url(#clip0_4135_22723)">
<path d="M16.4092 32H15.9332L19.2119 23.0067H23.7186C24.5052 23.0067 25.3666 22.4013 25.6412 21.6507L29.1946 11.9067C29.7812 10.312 28.8652 9.012 27.1612 9.012H20.8972L15.6572 23.4093L12.6906 31.5787C9.18871 30.7453 6.07039 28.755 3.83999 25.9296C1.60958 23.1042 0.39754 19.609 0.399906 16.0093C0.399906 8.664 5.34657 2.47333 12.0866 0.586667L9.02657 9.012L3.93324 23.0067H7.32257L11.6639 11.1187H14.2106L9.86924 23.0067H13.2572L17.2866 11.9067C17.8732 10.3133 16.9572 9.01333 15.2532 9.01333H12.3972L15.6772 0.0186667C15.9132 0 16.1519 0 16.3892 0C25.2372 0 32.3999 7.16267 32.3999 16.0093C32.4186 24.8387 25.2559 32 16.4092 32ZM26.0986 11.1H23.5519L19.9812 20.8813H22.5279L26.0986 11.1Z" fill="#A3A8A5"/>
</g>
<defs>
<clipPath id="clip0_4135_22723">
<rect width="32" height="32" fill="white" transform="translate(0.399902)"/>
</clipPath>
</defs>
</svg>
