<svg width="205" height="32" viewBox="0 0 205 32" fill="none" xmlns="http://www.w3.org/2000/svg">
<path d="M54.4303 16.8401H40.918C41.0861 18.3527 41.6239 19.5292 42.5987 20.4367C43.5734 21.3442 44.6826 21.7812 45.9599 21.7812C48.2792 21.7812 49.8926 20.8064 50.8674 18.8905L53.9934 19.5628C53.3211 21.277 52.2791 22.5879 50.8674 23.4954C49.4557 24.3694 47.8086 24.8399 45.9263 24.8399C43.607 24.8399 41.5903 24.0332 39.9096 22.3862C38.229 20.7392 37.3887 18.6552 37.3887 16.0671C37.3887 13.4789 38.229 11.3277 39.9096 9.68068C41.5903 8.03367 43.6406 7.19336 46.0608 7.19336C48.3128 7.19336 50.2624 7.96645 51.8758 9.54624C53.4892 11.126 54.3295 13.1428 54.4303 15.6301V16.8401ZM42.8676 11.3613C41.8928 12.0672 41.2541 13.0755 41.0188 14.3528H50.8338C50.5649 13.0419 49.9935 12.0336 49.1531 11.3277C48.3128 10.6218 47.2708 10.2857 46.0944 10.2857C44.9179 10.2857 43.8423 10.6554 42.8676 11.3613Z" fill="white"/>
<path d="M71.5722 24.6722H56.917V22.3529L66.8328 10.2188H56.9506V7.32812H71.6058V9.681L61.253 21.7815H71.6058V24.6722H71.5722Z" fill="white"/>
<path d="M91.0347 16.8401H77.5224C77.6904 18.3527 78.2283 19.5292 79.203 20.4367C80.1778 21.3442 81.287 21.7812 82.5643 21.7812C84.8836 21.7812 86.497 20.8064 87.4718 18.8905L90.5978 19.5628C89.9255 21.277 88.8835 22.5879 87.4718 23.4954C86.06 24.3694 84.413 24.8399 82.5307 24.8399C80.2114 24.8399 78.1946 24.0332 76.514 22.3862C74.8334 20.7392 73.993 18.6552 73.993 16.0671C73.993 13.4789 74.8334 11.3277 76.514 9.68068C78.1946 8.03367 80.245 7.19336 82.6651 7.19336C84.9172 7.19336 86.8667 7.96645 88.4802 9.54624C90.0936 11.126 90.9339 13.1428 91.0347 15.6301V16.8401ZM79.4719 11.3613C78.4971 12.0672 77.8585 13.0755 77.6232 14.3528H87.4381C87.1692 13.0419 86.5978 12.0336 85.7575 11.3277C84.9172 10.6218 83.8752 10.2857 82.6987 10.2857C81.5223 10.2857 80.4467 10.6554 79.4719 11.3613Z" fill="white"/>
<path d="M0 12.4441L3.64137 18.7563L6.29679 17.2437L10.7603 14.6444L9.24773 11.989L7.20433 13.1766C7.87659 11.2271 9.25471 9.51284 11.1034 8.47085C14.8344 6.31965 19.5066 7.22719 22.1956 10.4204L4.68337 20.5377L5.45647 21.8486C8.71691 27.4955 15.9773 29.4451 21.6242 26.1847C24.4477 24.5713 26.4308 21.8486 27.2039 18.7563L28.5596 21.0686L31.215 19.556L27.5737 13.2438L24.9183 14.7564L20.4547 17.3558L21.9673 20.0111L24.0107 18.8235C23.3385 20.773 21.9603 22.4873 20.1116 23.5293C16.3806 25.6805 11.7084 24.7729 9.01942 21.5797L26.5317 11.4624L25.7586 10.1515C22.4981 4.50457 15.2378 2.55505 9.59084 5.81546C6.76737 7.42886 4.78421 10.1515 4.01112 13.2438L2.65542 10.9316L0 12.4441Z" fill="white"/>
<path d="M99.0345 0V32" stroke="white" stroke-width="2"/>
<path d="M112.412 12.5449H108.505V14.8863H112.298V16.2685H108.505V19.5251H112.412V20.9073H107.035V11.1627H112.412V12.5449Z" fill="white"/>
<path d="M117.316 20.9073V10.5L124.422 17.9347V11.1627H125.893V21.5006L118.786 14.0848V20.9073H117.316Z" fill="white"/>
<path d="M133.896 12.5449V20.9073H132.425V12.5449H130.185V11.1627H136.13V12.5449H133.896Z" fill="white"/>
<path d="M145.793 12.5449H141.886V14.8863H145.68V16.2685H141.886V19.5251H145.793V20.9073H140.416V11.1627H145.793V12.5449Z" fill="white"/>
<path d="M153.998 16.7545L157.015 20.9073H155.216L152.433 16.9186H152.168V20.9073H150.697V11.1627H152.42C153.708 11.1627 154.638 11.4046 155.21 11.8885C155.841 12.427 156.157 13.1381 156.157 14.0217C156.157 14.7117 155.959 15.305 155.563 15.8015C155.168 16.298 154.646 16.6156 153.998 16.7545ZM152.168 15.6374H152.635C154.028 15.6374 154.724 15.1051 154.724 14.0406C154.724 13.0434 154.046 12.5449 152.692 12.5449H152.168V15.6374Z" fill="white"/>
<path d="M162.929 16.9501V20.9073H161.458V11.1627H163.125C163.941 11.1627 164.557 11.2195 164.974 11.3331C165.394 11.4467 165.765 11.6613 166.085 11.9768C166.644 12.5238 166.924 13.2138 166.924 14.0469C166.924 14.9389 166.625 15.6458 166.028 16.1675C165.43 16.6893 164.625 16.9501 163.61 16.9501H162.929ZM162.929 15.5869H163.478C164.829 15.5869 165.504 15.0673 165.504 14.028C165.504 13.0224 164.808 12.5196 163.415 12.5196H162.929V15.5869Z" fill="white"/>
<path d="M174.712 16.7545L177.729 20.9073H175.93L173.147 16.9186H172.882V20.9073H171.412V11.1627H173.135C174.422 11.1627 175.352 11.4046 175.924 11.8885C176.555 12.427 176.871 13.1381 176.871 14.0217C176.871 14.7117 176.673 15.305 176.278 15.8015C175.882 16.298 175.36 16.6156 174.712 16.7545ZM172.882 15.6374H173.349C174.742 15.6374 175.438 15.1051 175.438 14.0406C175.438 13.0434 174.761 12.5449 173.406 12.5449H172.882V15.6374Z" fill="white"/>
<path d="M183.643 11.1627V20.9073H182.173V11.1627H183.643Z" fill="white"/>
<path d="M194.467 12.6143L193.274 13.3211C193.051 12.934 192.839 12.6816 192.637 12.5638C192.427 12.4291 192.155 12.3618 191.823 12.3618C191.415 12.3618 191.076 12.4775 190.807 12.7089C190.537 12.9362 190.403 13.2223 190.403 13.5673C190.403 14.0427 190.756 14.4256 191.463 14.7159L192.435 15.1135C193.226 15.4333 193.805 15.8246 194.171 16.2874C194.537 16.7461 194.72 17.3099 194.72 17.9789C194.72 18.8751 194.421 19.6156 193.824 20.2004C193.222 20.7895 192.475 21.084 191.583 21.084C190.737 21.084 190.039 20.8337 189.488 20.333C188.945 19.8323 188.606 19.1275 188.472 18.2187L189.961 17.8905C190.028 18.4627 190.146 18.8582 190.314 19.077C190.617 19.4978 191.059 19.7081 191.64 19.7081C192.098 19.7081 192.479 19.5546 192.782 19.2474C193.085 18.9403 193.237 18.5511 193.237 18.0798C193.237 17.8905 193.209 17.718 193.155 17.5623C193.104 17.4024 193.022 17.2573 192.908 17.1268C192.799 16.9922 192.656 16.8681 192.479 16.7545C192.303 16.6367 192.092 16.5252 191.848 16.42L190.908 16.0287C189.574 15.4649 188.907 14.6402 188.907 13.5547C188.907 12.8225 189.187 12.2104 189.746 11.7181C190.306 11.2216 191.002 10.9733 191.835 10.9733C192.959 10.9733 193.836 11.5203 194.467 12.6143Z" fill="white"/>
<path d="M204.843 12.5449H200.937V14.8863H204.73V16.2685H200.937V19.5251H204.843V20.9073H199.466V11.1627H204.843V12.5449Z" fill="white"/>
</svg>
