<svg width="24" height="24" viewBox="0 0 24 24" fill="none" xmlns="http://www.w3.org/2000/svg">
<g id="mdi:recycle">
<path id="Vector" d="M21.8202 15.4186L19.3202 19.7486C18.8302 20.6086 17.9202 21.0586 17.0002 20.9986H15.0002V22.9986L12.5002 18.4986L15.0002 13.9986V15.9986H17.8202L15.6002 12.1486L19.9302 9.64859L21.7302 12.7686C22.2502 13.5386 22.3202 14.5686 21.8202 15.4186ZM9.21016 3.05859H14.2102C15.1902 3.05859 16.0402 3.62859 16.4502 4.44859L17.4502 6.18859L19.1802 5.18859L16.5402 9.59859L11.3902 9.68859L13.1202 8.68859L11.7102 6.23859L9.50016 10.0886L5.16016 7.58859L6.96016 4.46859C7.37016 3.63859 8.22016 3.05859 9.21016 3.05859ZM5.05016 19.7586L2.55016 15.4286C2.06016 14.5786 2.13016 13.5586 2.64016 12.7886L3.64016 11.0586L1.91016 10.0586L7.05016 10.1386L9.70016 14.5586L7.97016 13.5586L6.56016 15.9986H11.0002V20.9986H7.40016C6.93166 21.0325 6.46305 20.9343 6.04762 20.7151C5.63219 20.4958 5.2866 20.1645 5.05016 19.7586Z" fill="white"/>
</g>
</svg>
