<svg width="131" height="20" viewBox="0 0 131 20" fill="none" xmlns="http://www.w3.org/2000/svg">
<g id="logos:samsung" clip-path="url(#clip0_4135_22717)">
<path id="Vector" d="M124.16 8.71949V11.422H126.064V14.1038C126.069 14.3089 126.061 14.5284 126.032 14.717L126.016 14.8084C126.013 14.8295 126.009 14.8505 126.004 14.8714L125.989 14.9372C125.986 14.9486 125.983 14.9599 125.98 14.9711L125.957 15.0408C125.786 15.5344 125.27 16.1603 124.112 16.1603C122.877 16.1603 122.382 15.442 122.246 14.9375L122.23 14.8714L122.218 14.8084C122.184 14.6018 122.17 14.3433 122.17 14.1038V5.63443C122.17 5.3681 122.186 5.07949 122.234 4.84456L122.267 4.70152L122.274 4.67114L122.292 4.60835L122.303 4.5757L122.326 4.50836C122.503 4.04051 122.968 3.41722 124.101 3.41722C124.976 3.41722 125.447 3.77266 125.699 4.14L125.744 4.20886C125.758 4.23165 125.771 4.25468 125.783 4.27772L125.819 4.34557L125.85 4.41241L125.876 4.47747L125.899 4.54L125.919 4.60025L125.935 4.65696L125.949 4.71013L125.959 4.75874C125.964 4.78304 125.969 4.80886 125.973 4.8357L125.984 4.91848L125.989 4.96152L126 5.09165L126.007 5.2162L126.014 5.38633L126.016 5.47367V6.50203H130.696L130.697 5.86177L130.7 5.63291L130.699 5.45544L130.695 5.24861L130.691 5.13747L130.683 4.96405L130.671 4.78633L130.661 4.6676C130.344 1.53924 127.985 0.335443 125.116 0.126076L124.924 0.113418L124.73 0.104051C124.633 0.0999587 124.535 0.0969205 124.438 0.0949367L124.241 0.0924051C124.208 0.0918987 124.175 0.0918987 124.142 0.0918987L123.945 0.0931646L123.847 0.0949367L123.651 0.100253L123.457 0.108608L123.265 0.119747L123.074 0.133671C123.01 0.138987 122.947 0.144557 122.884 0.150886L122.697 0.171139C122.666 0.174684 122.635 0.178228 122.604 0.182279L122.419 0.207089C121.99 0.268608 121.578 0.356456 121.187 0.473671L121.02 0.525823C119.207 1.11899 117.889 2.38025 117.619 4.6676L117.591 4.92152L117.572 5.11823L117.554 5.3243L117.539 5.52937C117.531 5.66355 117.525 5.78962 117.525 5.89392L117.525 13.7846L117.527 13.8825L117.531 14.0314L117.535 14.1357L117.542 14.2471L117.55 14.3684L117.561 14.5018L117.582 14.7309L117.599 14.9066C117.862 17.8139 120.072 19.1071 122.776 19.4122L122.965 19.4319C123.282 19.4623 123.605 19.479 123.933 19.4841L124.129 19.4853L124.327 19.4841C124.652 19.4796 124.976 19.4622 125.299 19.4319L125.489 19.4122C128.202 19.1071 130.397 17.8139 130.665 14.9066L130.686 14.6504L130.702 14.4334L130.717 14.1904L130.726 13.981L130.733 13.6848V8.71924L124.16 8.71949ZM91.8873 0.59038H87.1872V14.2987C87.1946 14.5377 87.1872 14.8061 87.1458 15.0028L87.1321 15.0625L87.1148 15.1258C87.1083 15.1482 87.1014 15.1705 87.094 15.1927L87.0696 15.2623C86.8922 15.7337 86.4405 16.3486 85.3598 16.3486C84.3465 16.3486 83.8839 15.7937 83.6899 15.3339L83.6617 15.2623C83.6574 15.2507 83.6531 15.239 83.649 15.2273L83.6269 15.159L83.6087 15.0937C83.6059 15.0833 83.6033 15.0729 83.6008 15.0625L83.5878 15.0028C83.5409 14.8061 83.5348 14.5377 83.5409 14.299V0.589873H78.8421V13.8734L78.841 13.98L78.8428 14.1668L78.8494 14.4415L78.8621 14.7757L78.8713 14.9435L78.8774 15.0329L78.8832 15.0985C79.1135 17.556 80.5595 18.8352 82.6017 19.3704L82.7756 19.4139C83.1689 19.506 83.5678 19.5729 83.9697 19.6142L84.1624 19.6329L84.3572 19.6486L84.5539 19.6613C84.653 19.6671 84.7525 19.6714 84.8528 19.6749L85.0544 19.6805L85.2575 19.683C85.2915 19.6835 85.3258 19.6835 85.3598 19.6835L85.5645 19.6823L85.6661 19.6805L85.8679 19.6749C85.9685 19.6716 86.0682 19.6671 86.1675 19.6615L86.3643 19.6489L86.5596 19.6329L86.7525 19.6142C89.5013 19.323 91.5635 18.0752 91.8474 15.0985L91.8512 15.0689L91.8588 14.9909L91.8703 14.8354L91.8804 14.6471L91.886 14.5111L91.8918 14.3025L91.8934 14.1668L91.8929 14.0395L91.8898 13.9246L91.8873 13.8734V0.59038ZM48.7011 0.59038L46.3565 15.0752L44.0132 0.59038H36.4316L36.0294 19.1205H40.6744L40.8001 1.96658L43.996 19.1205H48.7085L51.9072 1.96658L52.0334 19.1205H56.69L56.2744 0.59038H48.7011ZM20.63 0.59038L17.1875 19.1205H22.2075L24.8019 1.96658L27.3339 19.1205H32.3191L28.8908 0.59038H20.63ZM108.314 15.5094L103.937 0.59038H97.0406V18.9273H101.603L101.338 3.53114L106.038 18.9273H112.652V0.59038H108.06L108.314 15.5094ZM66.1135 5.41291C66.031 5.04684 66.0548 4.65823 66.0975 4.45494C66.1097 4.40101 66.1239 4.34658 66.1407 4.29241L66.1681 4.21114C66.3534 3.69722 66.7874 3.21468 67.7819 3.21468C68.8552 3.21468 69.4846 3.88203 69.4846 4.88304V6.0162H74.0663V4.72481C74.0663 1.81013 72.1532 0.688861 70.109 0.295949L69.9406 0.265316L69.772 0.237722L69.6032 0.213165L69.4346 0.191646L69.266 0.172658L69.0982 0.156456C69.0423 0.151392 68.9864 0.146835 68.9308 0.142785L68.7648 0.131392L68.5997 0.122278L68.436 0.11519L68.2737 0.110127L68.1138 0.106582L67.8771 0.10481L67.773 0.105316L67.5656 0.108354C67.5311 0.108861 67.497 0.109873 67.4625 0.110886L67.2579 0.118481C67.1901 0.121266 67.1225 0.12481 67.0552 0.128608L66.8546 0.142532C64.0591 0.355696 61.8781 1.50051 61.4416 4.18506C61.3126 5.00279 61.2806 5.72835 61.4861 6.65443C61.8095 8.1762 63.0811 9.25924 64.5405 10.1673L64.7665 10.3058L64.8803 10.3742L65.1096 10.5086L65.3401 10.6413L65.5717 10.7716L65.919 10.9641L66.8315 11.4628L67.0535 11.5853L67.2713 11.7073L67.4848 11.8294L67.6933 11.9514C68.6881 12.5418 69.4851 13.1403 69.7718 13.856C69.9305 14.2813 69.8959 14.817 69.8193 15.159L69.8061 15.2142C69.787 15.2974 69.7626 15.3793 69.7332 15.4595L69.7012 15.5397C69.4899 16.0314 69.0286 16.4506 68.0147 16.4506C66.8585 16.4506 66.1622 15.7879 66.1622 14.7886L66.1607 13.0104H61.2291V14.4241C61.2291 17.7418 63.3403 19.183 65.9845 19.6109L66.1813 19.6408C66.3131 19.6595 66.4461 19.6757 66.5799 19.6896L66.7818 19.7089C67.0182 19.7291 67.2573 19.7428 67.498 19.7499L67.705 19.7544L67.8088 19.7554L67.9127 19.756C67.9817 19.756 68.0508 19.7554 68.1194 19.7544L68.3245 19.7499L68.4261 19.7466L68.6289 19.7375C68.696 19.7342 68.763 19.7299 68.8295 19.7256L69.0283 19.7104C69.159 19.6992 69.2894 19.6856 69.4196 19.6699L69.6121 19.6451L69.8022 19.6167C69.8652 19.6066 69.9277 19.5965 69.9899 19.5851L70.1752 19.5501C72.4134 19.103 74.0788 17.8906 74.4129 15.5595C74.4591 15.2116 74.4876 14.8906 74.5028 14.597L74.5109 14.4056C74.5122 14.3742 74.513 14.3433 74.5137 14.3127L74.5168 14.1337V13.9628L74.5142 13.8003L74.5087 13.6461L74.501 13.5008C74.4997 13.4775 74.4983 13.4543 74.4967 13.4311L74.4866 13.2985L74.4749 13.1744L74.4622 13.0592L74.4419 12.903L74.4208 12.7668L74.3931 12.6167L74.3804 12.5552C74.0577 10.9415 72.6409 9.80177 71.067 8.86355L70.841 8.73089L70.6135 8.60076L70.3852 8.47291L70.0424 8.28557L69.588 8.04228L68.8123 7.63089L68.4934 7.45873L68.3893 7.40177L68.1851 7.28836L67.9866 7.17519C67.01 6.61063 66.2719 6.0562 66.1135 5.41291ZM5.67314 5.36709C5.58885 5.01696 5.60205 4.64861 5.64521 4.43443L5.66299 4.35443L5.6833 4.27494C5.83818 3.71848 6.26145 3.14506 7.35527 3.14506C8.44225 3.14506 9.08234 3.81848 9.08234 4.8281V5.97494H13.7182V4.67342C13.7182 1.89215 11.9827 0.724051 10.0436 0.267089L9.87453 0.229114C9.73326 0.198959 9.59129 0.1722 9.44873 0.148861L9.27785 0.122532L9.10697 0.0989874L8.93609 0.078481L8.76598 0.0607595C8.70939 0.0552039 8.65277 0.0500561 8.59611 0.0453165L8.42752 0.0326582L8.25994 0.0220253L8.09338 0.0136709L7.92834 0.00759494L7.76559 0.00329114L7.52437 0H7.44541C7.37584 0 7.30652 0.000506329 7.23771 0.00151899L7.03154 0.00582279C6.89494 0.00987342 6.75936 0.0159494 6.62529 0.0235443L6.42471 0.0372152C6.3917 0.0397468 6.35844 0.0422785 6.32543 0.0453165L6.12814 0.0635443C6.06307 0.0700365 5.99807 0.0772099 5.93314 0.0850633L5.74018 0.109873C5.58072 0.131899 5.42355 0.157215 5.26893 0.186329L5.08484 0.222785L4.9033 0.262785L4.7248 0.306329C4.66564 0.321519 4.60699 0.336962 4.5491 0.353418L4.37619 0.404051C2.57727 0.955443 1.28057 2.1119 0.953535 4.11848C0.818457 4.94911 0.795098 5.67975 0.990352 6.6162C1.33414 8.23392 2.7357 9.36101 4.30383 10.3078L4.53437 10.4451L4.65041 10.5129L4.88324 10.6466L5.23414 10.8438L5.70133 11.1005L6.38992 11.477L6.72457 11.6628L7.04982 11.8476L7.26057 11.9711C7.2951 11.9916 7.32963 12.0122 7.36365 12.0329L7.56576 12.1567C8.4265 12.6944 9.10088 13.2481 9.36088 13.8975C9.5315 14.3195 9.49164 14.8554 9.41115 15.2084L9.39744 15.2656C9.37736 15.3478 9.35244 15.4288 9.32279 15.5081L9.29055 15.5878C9.07422 16.0881 8.60932 16.5172 7.58227 16.5172C6.42141 16.5172 5.72697 15.843 5.72697 14.8301L5.72037 13.0471H0.733398V14.4638C0.733398 18.441 3.74092 19.7484 7.07166 19.8466L7.28012 19.8511L7.48934 19.8527L7.69627 19.8514C7.79936 19.8499 7.90193 19.8473 8.0035 19.8438L8.20662 19.8347C8.30717 19.8296 8.40746 19.823 8.50699 19.8154L8.70504 19.7987L8.90055 19.779C8.96555 19.7719 9.03004 19.7643 9.09453 19.7562L9.28572 19.7296C9.3492 19.7203 9.41242 19.7104 9.47488 19.7L9.6615 19.6671C11.9794 19.2342 13.7067 18.0086 14.0546 15.6109C14.099 15.2957 14.1306 14.9788 14.1493 14.661L14.1584 14.4711L14.164 14.2896C14.1654 14.2317 14.1662 14.1737 14.1666 14.1157L14.1658 13.9499L14.1625 13.7922L14.1569 13.6428L14.1493 13.5013L14.1399 13.3681L14.1292 13.2433L14.111 13.0716L14.0914 12.9192L14.065 12.7458L14.035 12.5775C13.7133 10.983 12.3389 9.84836 10.7924 8.91544L10.5649 8.78051C10.5269 8.7582 10.4888 8.73601 10.4506 8.71392L10.2204 8.58279L9.98955 8.45393L9.7585 8.32734L9.52744 8.20304L8.50877 7.6638L8.18275 7.48962L7.97125 7.37468L7.76482 7.26025L7.56424 7.14633L7.46648 7.08937L7.27605 6.97595C6.4341 6.46456 5.81609 5.95291 5.67314 5.36709Z" fill="#A3A8A5"/>
</g>
<defs>
<clipPath id="clip0_4135_22717">
<rect width="130" height="20" fill="white" transform="translate(0.733398)"/>
</clipPath>
</defs>
</svg>
