<svg width="16" height="16" viewBox="0 0 16 16" fill="none" xmlns="http://www.w3.org/2000/svg">
<g id="u:search">
<path id="Vector" d="M14.4703 13.5266L11.997 11.0733C12.9571 9.87621 13.422 8.3568 13.2962 6.82747C13.1704 5.29814 12.4635 3.87512 11.3207 2.85103C10.1779 1.82694 8.68621 1.27961 7.15229 1.32158C5.61837 1.36356 4.15882 1.99164 3.07377 3.0767C1.98871 4.16175 1.36063 5.62129 1.31865 7.15522C1.27668 8.68914 1.82401 10.1808 2.8481 11.3236C3.87219 12.4664 5.29521 13.1733 6.82454 13.2991C8.35387 13.4249 9.87328 12.96 11.0703 11.9999L13.5237 14.4533C13.5856 14.5158 13.6594 14.5654 13.7406 14.5992C13.8219 14.633 13.909 14.6505 13.997 14.6505C14.085 14.6505 14.1722 14.633 14.2534 14.5992C14.3346 14.5654 14.4084 14.5158 14.4703 14.4533C14.5905 14.329 14.6577 14.1628 14.6577 13.9899C14.6577 13.817 14.5905 13.6509 14.4703 13.5266ZM7.33034 11.9999C6.40736 11.9999 5.50511 11.7262 4.73768 11.2135C3.97025 10.7007 3.37211 9.97185 3.0189 9.11913C2.66569 8.2664 2.57328 7.32809 2.75334 6.42285C2.93341 5.5176 3.37786 4.68608 4.03051 4.03344C4.68315 3.38079 5.51467 2.93634 6.41992 2.75627C7.32516 2.57621 8.26347 2.66862 9.1162 3.02183C9.96892 3.37504 10.6978 3.97318 11.2105 4.74061C11.7233 5.50804 11.997 6.41029 11.997 7.33327C11.997 8.57095 11.5053 9.75793 10.6302 10.6331C9.755 11.5083 8.56802 11.9999 7.33034 11.9999Z" fill="white"/>
</g>
</svg>
