<svg width="16" height="16" viewBox="0 0 16 16" fill="none" xmlns="http://www.w3.org/2000/svg">
<g id="u:shopping-cart">
<path id="Vector" d="M13.9985 10.6663H4.66512C4.48831 10.6663 4.31874 10.5961 4.19372 10.4711C4.06869 10.3461 3.99845 10.1765 3.99845 9.99967C3.99845 9.82286 4.06869 9.65329 4.19372 9.52827C4.31874 9.40325 4.48831 9.33301 4.66512 9.33301H11.6251C12.0709 9.33303 12.5039 9.18414 12.8554 8.90996C13.2068 8.63578 13.4567 8.25204 13.5651 7.81967L14.6651 3.49301C14.6901 3.39461 14.6923 3.29182 14.6715 3.19246C14.6507 3.0931 14.6075 2.9998 14.5451 2.91967C14.4803 2.8375 14.397 2.77174 14.302 2.72773C14.2071 2.68372 14.1031 2.66269 13.9985 2.66634H4.50512C4.36758 2.27731 4.11307 1.94034 3.7765 1.70163C3.43992 1.46293 3.03775 1.33417 2.62512 1.33301H1.99845C1.82164 1.33301 1.65207 1.40325 1.52705 1.52827C1.40202 1.65329 1.33179 1.82286 1.33179 1.99967C1.33179 2.17649 1.40202 2.34605 1.52705 2.47108C1.65207 2.5961 1.82164 2.66634 1.99845 2.66634H2.62512C2.77741 2.6619 2.92663 2.70976 3.04792 2.80195C3.16922 2.89414 3.25529 3.02509 3.29179 3.17301L3.33179 3.49301L4.48512 7.99967C3.95469 8.02354 3.45546 8.25715 3.09727 8.6491C2.73907 9.04105 2.55125 9.55924 2.57512 10.0897C2.59899 10.6201 2.8326 11.1193 3.22455 11.4775C3.6165 11.8357 4.13469 12.0235 4.66512 11.9997H4.78512C4.67548 12.3018 4.64025 12.6258 4.68241 12.9444C4.72457 13.263 4.84288 13.5667 5.02733 13.8299C5.21178 14.0931 5.45693 14.3079 5.74202 14.4563C6.02711 14.6046 6.34375 14.682 6.66512 14.682C6.98649 14.682 7.30313 14.6046 7.58822 14.4563C7.87331 14.3079 8.11846 14.0931 8.30291 13.8299C8.48736 13.5667 8.60567 13.263 8.64783 12.9444C8.69 12.6258 8.65476 12.3018 8.54512 11.9997H10.1185C10.0088 12.3018 9.97358 12.6258 10.0157 12.9444C10.0579 13.263 10.1762 13.5667 10.3607 13.8299C10.5451 14.0931 10.7903 14.3079 11.0754 14.4563C11.3604 14.6046 11.6771 14.682 11.9985 14.682C12.3198 14.682 12.6365 14.6046 12.9216 14.4563C13.2066 14.3079 13.4518 14.0931 13.6362 13.8299C13.8207 13.5667 13.939 13.263 13.9812 12.9444C14.0233 12.6258 13.9881 12.3018 13.8785 11.9997H13.9985C14.1753 11.9997 14.3448 11.9294 14.4699 11.8044C14.5949 11.6794 14.6651 11.5098 14.6651 11.333C14.6651 11.1562 14.5949 10.9866 14.4699 10.8616C14.3448 10.7366 14.1753 10.6663 13.9985 10.6663ZM13.1451 3.99967L12.2718 7.49301C12.2353 7.64093 12.1492 7.77188 12.0279 7.86407C11.9066 7.95625 11.7574 8.00411 11.6051 7.99967H5.85179L4.85179 3.99967H13.1451ZM6.66512 13.333C6.53327 13.333 6.40437 13.2939 6.29474 13.2207C6.18511 13.1474 6.09966 13.0433 6.0492 12.9215C5.99874 12.7996 5.98554 12.6656 6.01126 12.5363C6.03699 12.407 6.10048 12.2882 6.19372 12.1949C6.28695 12.1017 6.40574 12.0382 6.53506 12.0125C6.66438 11.9868 6.79843 12 6.92024 12.0504C7.04206 12.1009 7.14618 12.1863 7.21943 12.296C7.29269 12.4056 7.33179 12.5345 7.33179 12.6663C7.33179 12.8432 7.26155 13.0127 7.13653 13.1377C7.0115 13.2628 6.84193 13.333 6.66512 13.333ZM11.9985 13.333C11.8666 13.333 11.7377 13.2939 11.6281 13.2207C11.5184 13.1474 11.433 13.0433 11.3825 12.9215C11.3321 12.7996 11.3189 12.6656 11.3446 12.5363C11.3703 12.407 11.4338 12.2882 11.527 12.1949C11.6203 12.1017 11.7391 12.0382 11.8684 12.0125C11.9977 11.9868 12.1318 12 12.2536 12.0504C12.3754 12.1009 12.4795 12.1863 12.5528 12.296C12.626 12.4056 12.6651 12.5345 12.6651 12.6663C12.6651 12.8432 12.5949 13.0127 12.4699 13.1377C12.3448 13.2628 12.1753 13.333 11.9985 13.333Z" fill="white"/>
</g>
</svg>
